<svg xmlns="http://www.w3.org/2000/svg" width="19.055" height="21.777" viewBox="0 0 19.055 21.777">
  <path id="Icon_awesome-calculator" data-name="Icon awesome-calculator" d="M17.013,0H2.042A2.093,2.093,0,0,0,0,2.042V19.735a2.093,2.093,0,0,0,2.042,2.042H17.013a2.093,2.093,0,0,0,2.042-2.042V2.042A2.093,2.093,0,0,0,17.013,0ZM5.444,18.51a.585.585,0,0,1-.544.544H3.267a.585.585,0,0,1-.544-.544V16.877a.585.585,0,0,1,.544-.544H4.9a.585.585,0,0,1,.544.544Zm0-5.444a.585.585,0,0,1-.544.544H3.267a.585.585,0,0,1-.544-.544V11.433a.585.585,0,0,1,.544-.544H4.9a.585.585,0,0,1,.544.544Zm5.444,5.444a.585.585,0,0,1-.544.544H8.711a.585.585,0,0,1-.544-.544V16.877a.585.585,0,0,1,.544-.544h1.633a.585.585,0,0,1,.544.544Zm0-5.444a.585.585,0,0,1-.544.544H8.711a.585.585,0,0,1-.544-.544V11.433a.585.585,0,0,1,.544-.544h1.633a.585.585,0,0,1,.544.544Zm5.444,5.444a.585.585,0,0,1-.544.544H14.155a.585.585,0,0,1-.544-.544V11.433a.585.585,0,0,1,.544-.544h1.633a.585.585,0,0,1,.544.544V18.51Zm0-10.888a.585.585,0,0,1-.544.544H3.267a.585.585,0,0,1-.544-.544V3.267a.585.585,0,0,1,.544-.544H15.788a.585.585,0,0,1,.544.544Z" fill="#fff"/>
</svg>
