<svg xmlns="http://www.w3.org/2000/svg" width="25.199" height="20.466" viewBox="0 0 25.199 20.466">
  <path id="Icon_awesome-twitter" data-name="Icon awesome-twitter" d="M22.609,8.481c.016.224.016.448.016.672A14.593,14.593,0,0,1,7.931,23.847,14.6,14.6,0,0,1,0,21.529a10.684,10.684,0,0,0,1.247.064,10.343,10.343,0,0,0,6.412-2.207A5.174,5.174,0,0,1,2.83,15.8a6.513,6.513,0,0,0,.975.08,5.462,5.462,0,0,0,1.359-.176A5.165,5.165,0,0,1,1.023,10.64v-.064a5.2,5.2,0,0,0,2.334.656,5.172,5.172,0,0,1-1.6-6.907,14.68,14.68,0,0,0,10.649,5.4,5.83,5.83,0,0,1-.128-1.183,5.169,5.169,0,0,1,8.938-3.534A10.168,10.168,0,0,0,24.5,3.765a5.151,5.151,0,0,1-2.27,2.846,10.353,10.353,0,0,0,2.974-.8,11.1,11.1,0,0,1-2.59,2.67Z" transform="translate(0 -3.381)" fill="#fff"/>
</svg>
