<svg xmlns="http://www.w3.org/2000/svg" width="18.853" height="18.853" viewBox="0 0 18.853 18.853">
  <path id="Icon_awesome-copyright" data-name="Icon awesome-copyright" d="M9.989.563a9.426,9.426,0,1,0,9.426,9.426A9.426,9.426,0,0,0,9.989.563Zm4.452,13.18a5.674,5.674,0,0,1-4.175,1.738A5.355,5.355,0,0,1,4.774,9.948,5.352,5.352,0,0,1,10.238,4.5a5.474,5.474,0,0,1,3.931,1.479.456.456,0,0,1,.047.556l-.851,1.317a.456.456,0,0,1-.693.087,3.867,3.867,0,0,0-2.352-.908A2.72,2.72,0,0,0,7.511,9.92a2.844,2.844,0,0,0,2.823,3.029,3.726,3.726,0,0,0,2.491-1.088.456.456,0,0,1,.7.04l.933,1.276a.456.456,0,0,1-.021.565Z" transform="translate(-0.563 -0.563)" fill="#27bdad"/>
</svg>
