<svg xmlns="http://www.w3.org/2000/svg" width="22.062" height="22.057" viewBox="0 0 22.062 22.057">
  <path id="Icon_awesome-instagram" data-name="Icon awesome-instagram" d="M11.028,7.611a5.655,5.655,0,1,0,5.655,5.655A5.646,5.646,0,0,0,11.028,7.611Zm0,9.332A3.677,3.677,0,1,1,14.7,13.266a3.683,3.683,0,0,1-3.677,3.677ZM18.233,7.38a1.319,1.319,0,1,1-1.319-1.319A1.316,1.316,0,0,1,18.233,7.38Zm3.745,1.339A6.527,6.527,0,0,0,20.2,4.1a6.57,6.57,0,0,0-4.621-1.782c-1.821-.1-7.279-.1-9.1,0A6.561,6.561,0,0,0,1.854,4.092,6.549,6.549,0,0,0,.072,8.713c-.1,1.821-.1,7.279,0,9.1a6.527,6.527,0,0,0,1.782,4.621,6.579,6.579,0,0,0,4.621,1.782c1.821.1,7.279.1,9.1,0A6.527,6.527,0,0,0,20.2,22.435a6.57,6.57,0,0,0,1.782-4.621c.1-1.821.1-7.274,0-9.1ZM19.626,19.768a3.722,3.722,0,0,1-2.1,2.1c-1.452.576-4.9.443-6.5.443s-5.055.128-6.5-.443a3.722,3.722,0,0,1-2.1-2.1c-.576-1.452-.443-4.9-.443-6.5s-.128-5.055.443-6.5a3.722,3.722,0,0,1,2.1-2.1c1.452-.576,4.9-.443,6.5-.443s5.055-.128,6.5.443a3.722,3.722,0,0,1,2.1,2.1c.576,1.452.443,4.9.443,6.5S20.2,18.321,19.626,19.768Z" transform="translate(0.005 -2.238)" fill="#fff"/>
</svg>
