<svg xmlns="http://www.w3.org/2000/svg" width="22.049" height="22.049" viewBox="0 0 22.049 22.049">
  <path id="Icon_awesome-linkedin-in" data-name="Icon awesome-linkedin-in" d="M4.936,22.05H.364V7.329H4.936ZM2.647,5.321A2.66,2.66,0,1,1,5.295,2.648,2.67,2.67,0,0,1,2.647,5.321Zm19.4,16.729H17.483V14.884c0-1.708-.034-3.9-2.377-3.9-2.377,0-2.741,1.855-2.741,3.775V22.05H7.8V7.329h4.384V9.337h.064A4.8,4.8,0,0,1,16.572,6.96c4.626,0,5.477,3.047,5.477,7V22.05Z" transform="translate(0 -0.001)" fill="#fff"/>
</svg>
