<svg xmlns="http://www.w3.org/2000/svg" width="30.715" height="24.593" viewBox="0 0 30.715 24.593">
  <g id="Group_4824" data-name="Group 4824" transform="translate(-1200.883 -705)">
    <g id="Group_891" data-name="Group 891" transform="translate(1200.883 705)" opacity="0.86" style="isolation: isolate">
      <path id="Path_2495" data-name="Path 2495" d="M222.694,361.478c-.254-1.442-.253-1.44.967-1.91,4.011-1.547,8.016-3.11,12.04-4.622a2.224,2.224,0,0,1,1.441-.008c4.024,1.513,8.029,3.077,12.04,4.626,1.226.474,1.226.473.981,1.913Zm14.927-3.13a1.133,1.133,0,0,0-1.162-1.143,1.124,1.124,0,1,0-.036,2.246A1.117,1.117,0,0,0,237.621,358.348Z" transform="translate(-221.088 -354.822)" fill="#27bdad"/>
      <path id="Path_2496" data-name="Path 2496" d="M247.541,396.735H218.248V394.49h29.293Z" transform="translate(-217.563 -387.248)" fill="#27bdad"/>
      <path id="Path_2497" data-name="Path 2497" d="M231.117,421.715l.885.084v.846H226.88c-.219-.811-.219-.811.729-.958V410.849c-.462-.095-1.176-.049-.759-.959h5.159v.786l-.892.194Z" transform="translate(-224.492 -399.837)" fill="#27bdad"/>
      <g id="Group_4823" data-name="Group 4823">
        <path id="Path_2498" data-name="Path 2498" d="M264.907,421.846l.9-.091V410.894l-.848-.154v-.8h5.216v.776l-.837.186v10.813l.843.152.045.809h-5.268Z" transform="translate(-255.704 -399.879)" fill="#27bdad"/>
      </g>
      <path id="Path_2499" data-name="Path 2499" d="M347.093,410.715l-.912.125v10.853l.842.136v.812H341.8l-.051-.767.9-.194V410.86c-.48-.093-1.191-.051-.782-.96h5.136Z" transform="translate(-318.522 -399.845)" fill="#27bdad"/>
      <path id="Path_2500" data-name="Path 2500" d="M304.065,410.593l-.879-.108c-.089-.455-.258-.887.463-.885,1.545,0,3.09,0,4.631,0,.425.869-.13.95-.748.993v10.754c.876.308.876.308.852,1.035H303.17l-.062-.794.957-.139Z" transform="translate(-286.927 -399.6)" fill="#27bdad"/>
      <path id="Path_2501" data-name="Path 2501" d="M214.495,484.3v-1.169H245.21V484.3Z" transform="translate(-214.495 -459.708)" fill="#27bdad"/>
    </g>
  </g>
</svg>
