<svg xmlns="http://www.w3.org/2000/svg" width="23.786" height="17.5" viewBox="0 0 23.786 17.5">
  <g id="Group_4428" data-name="Group 4428" transform="translate(-69.928 -712)">
    <path id="Icon_awesome-credit-card" data-name="Icon awesome-credit-card" d="M0,18.768A1.983,1.983,0,0,0,1.982,20.75H21.8a1.983,1.983,0,0,0,1.982-1.982V11.5H0ZM7.929,15.96a.5.5,0,0,1,.5-.5H14.04a.5.5,0,0,1,.5.5v1.652a.5.5,0,0,1-.5.5H8.424a.5.5,0,0,1-.5-.5Zm-5.286,0a.5.5,0,0,1,.5-.5H6.112a.5.5,0,0,1,.5.5v1.652a.5.5,0,0,1-.5.5H3.138a.5.5,0,0,1-.5-.5Z" transform="translate(69.928 708.75)" fill="#fff"/>
    <path id="Icon_awesome-credit-card-2" data-name="Icon awesome-credit-card" d="M23.786,4.232V6.214H0V4.232A1.983,1.983,0,0,1,1.982,2.25H21.8A1.983,1.983,0,0,1,23.786,4.232Z" transform="translate(69.928 709.75)" fill="#fff"/>
  </g>
</svg>
