<svg xmlns="http://www.w3.org/2000/svg" width="31.715" height="24.889" viewBox="0 0 31.715 24.889">
  <path id="Icon_awesome-credit-card" data-name="Icon awesome-credit-card" d="M0,23.58a2.56,2.56,0,0,0,2.56,2.56h25.6a2.56,2.56,0,0,0,2.56-2.56V14.195H0Zm10.238-3.626a.642.642,0,0,1,.64-.64H18.13a.642.642,0,0,1,.64.64v2.133a.642.642,0,0,1-.64.64H10.878a.642.642,0,0,1-.64-.64Zm-6.826,0a.642.642,0,0,1,.64-.64H7.892a.642.642,0,0,1,.64.64v2.133a.642.642,0,0,1-.64.64H4.053a.642.642,0,0,1-.64-.64ZM30.715,4.81v2.56H0V4.81A2.56,2.56,0,0,1,2.56,2.25h25.6A2.56,2.56,0,0,1,30.715,4.81Z" transform="translate(0.5 -1.75)" fill="#27bdad" stroke="rgba(0,0,0,0)" stroke-width="1" opacity="0.86"/>
</svg>
