<svg xmlns="http://www.w3.org/2000/svg" width="17.676" height="17.676" viewBox="0 0 17.676 17.676">
  <path id="Icon_awesome-info-circle" data-name="Icon awesome-info-circle" d="M9.4.563A8.838,8.838,0,1,0,18.238,9.4,8.839,8.839,0,0,0,9.4.563Zm0,3.92a1.5,1.5,0,1,1-1.5,1.5A1.5,1.5,0,0,1,9.4,4.483Zm2,9.052a.428.428,0,0,1-.428.428H7.832a.428.428,0,0,1-.428-.428v-.855a.428.428,0,0,1,.428-.428H8.26V9.971H7.832A.428.428,0,0,1,7.4,9.543V8.688a.428.428,0,0,1,.428-.428h2.281a.428.428,0,0,1,.428.428v3.564h.428a.428.428,0,0,1,.428.428Z" transform="translate(-0.563 -0.563)" fill="#27bdad"/>
</svg>
