<svg xmlns="http://www.w3.org/2000/svg" width="14.619" height="16.707" viewBox="0 0 14.619 16.707">
  <path id="Icon_awesome-calculator" data-name="Icon awesome-calculator" d="M13.052,0H1.566A1.606,1.606,0,0,0,0,1.566V15.141a1.606,1.606,0,0,0,1.566,1.566H13.052a1.606,1.606,0,0,0,1.566-1.566V1.566A1.606,1.606,0,0,0,13.052,0ZM4.177,14.2a.449.449,0,0,1-.418.418H2.506a.449.449,0,0,1-.418-.418V12.948a.449.449,0,0,1,.418-.418H3.759a.449.449,0,0,1,.418.418Zm0-4.177a.449.449,0,0,1-.418.418H2.506a.449.449,0,0,1-.418-.418V8.771a.449.449,0,0,1,.418-.418H3.759a.449.449,0,0,1,.418.418ZM8.354,14.2a.449.449,0,0,1-.418.418H6.683a.449.449,0,0,1-.418-.418V12.948a.449.449,0,0,1,.418-.418H7.936a.449.449,0,0,1,.418.418Zm0-4.177a.449.449,0,0,1-.418.418H6.683a.449.449,0,0,1-.418-.418V8.771a.449.449,0,0,1,.418-.418H7.936a.449.449,0,0,1,.418.418ZM12.53,14.2a.449.449,0,0,1-.418.418H10.86a.449.449,0,0,1-.418-.418V8.771a.449.449,0,0,1,.418-.418h1.253a.449.449,0,0,1,.418.418V14.2Zm0-8.354a.449.449,0,0,1-.418.418H2.506a.449.449,0,0,1-.418-.418V2.506a.449.449,0,0,1,.418-.418h9.607a.449.449,0,0,1,.418.418Z" fill="#27bdad"/>
</svg>
