<svg xmlns="http://www.w3.org/2000/svg" width="46.002" height="46.002" viewBox="0 0 46.002 46.002">
  <path id="Subtraction_13" data-name="Subtraction 13" d="M24042-20044a22.861,22.861,0,0,1-8.953-1.809,22.887,22.887,0,0,1-7.312-4.93,22.887,22.887,0,0,1-4.93-7.312A22.861,22.861,0,0,1,24019-20067a22.859,22.859,0,0,1,1.809-8.951,22.889,22.889,0,0,1,4.93-7.311,22.881,22.881,0,0,1,7.313-4.928A22.861,22.861,0,0,1,24042-20090a22.859,22.859,0,0,1,8.951,1.809,22.926,22.926,0,0,1,7.311,4.928,22.9,22.9,0,0,1,4.928,7.311A22.859,22.859,0,0,1,24065-20067a22.861,22.861,0,0,1-1.809,8.953,22.913,22.913,0,0,1-4.928,7.313,22.942,22.942,0,0,1-7.311,4.93A22.859,22.859,0,0,1,24042-20044Zm-6.135-32.2h0v18.4l16.865-9.2-16.865-9.2Z" transform="translate(-24018.998 20090)" fill="#27bdad"/>
</svg>
