<svg xmlns="http://www.w3.org/2000/svg" width="27.469" height="27.469" viewBox="0 0 27.469 27.469">
  <g id="Icon_feather-settings" data-name="Icon feather-settings" transform="translate(-0.5 -0.5)">
    <path id="Path_6327" data-name="Path 6327" d="M20.446,16.973A3.473,3.473,0,1,1,16.973,13.5,3.473,3.473,0,0,1,20.446,16.973Z" transform="translate(-2.739 -2.739)" fill="#fff" stroke="#fff" stroke-linecap="round" stroke-width="2"/>
    <path id="Path_6328" data-name="Path 6328" d="M22.8,17.707a1.91,1.91,0,0,0,.382,2.107l.069.069a2.317,2.317,0,1,1-3.276,3.276l-.069-.069a1.926,1.926,0,0,0-3.265,1.366v.2a2.315,2.315,0,1,1-4.631,0v-.1a1.91,1.91,0,0,0-1.25-1.748,1.91,1.91,0,0,0-2.107.382l-.069.069a2.317,2.317,0,1,1-3.276-3.276l.069-.069a1.926,1.926,0,0,0-1.366-3.265h-.2a2.315,2.315,0,1,1,0-4.631h.1a1.91,1.91,0,0,0,1.748-1.25,1.91,1.91,0,0,0-.382-2.107l-.069-.069A2.317,2.317,0,1,1,8.492,5.309l.069.069a1.91,1.91,0,0,0,2.107.382h.093a1.91,1.91,0,0,0,1.158-1.748v-.2a2.315,2.315,0,1,1,4.631,0v.1a1.926,1.926,0,0,0,3.265,1.366l.069-.069A2.317,2.317,0,1,1,23.16,8.492l-.069.069a1.91,1.91,0,0,0-.382,2.107v.093a1.91,1.91,0,0,0,1.748,1.158h.2a2.315,2.315,0,1,1,0,4.631h-.1A1.91,1.91,0,0,0,22.8,17.707Z" fill="none" stroke="#fff" stroke-linecap="round" stroke-width="2"/>
  </g>
</svg>
