<svg xmlns="http://www.w3.org/2000/svg" width="24.611" height="23.152" viewBox="0 0 24.611 23.152">
  <g id="Group_4483" data-name="Group 4483" transform="translate(-74 -853.848)">
    <g id="Group_4244" data-name="Group 4244" transform="translate(-307.762 379.848)">
      <circle id="Ellipse_969" data-name="Ellipse 969" cx="5" cy="5" r="5" transform="translate(385.5 475)" fill="#fff" stroke="#fff" stroke-linecap="round" stroke-linejoin="round" stroke-width="2"/>
      <path id="Subtraction_11" data-name="Subtraction 11" d="M17816.76-18744.848h-18v-5a4.006,4.006,0,0,1,4-4h7.17a6.538,6.538,0,0,0-.174,1.5,6.506,6.506,0,0,0,6.5,6.5c.16,0,.318-.006.5-.02v1.021Z" transform="translate(-17417 19242)" fill="#fff"/>
    </g>
    <path id="Icon_ionic-ios-share-alt" data-name="Icon ionic-ios-share-alt" d="M15.463,10.62,11.4,6.819a.208.208,0,0,0-.161-.069c-.127.006-.288.1-.288.23V8.886a.123.123,0,0,1-.1.118c-4.04.619-5.741,3.642-6.343,6.781-.023.124.144.239.222.141a7.343,7.343,0,0,1,6.1-3.092.142.142,0,0,1,.121.138v1.872a.247.247,0,0,0,.418.153l4.092-3.867a.318.318,0,0,0,.1-.242A.386.386,0,0,0,15.463,10.62Z" transform="translate(83.051 856.701)" fill="#fff"/>
  </g>
</svg>
