<svg xmlns="http://www.w3.org/2000/svg" width="30.715" height="22.949" viewBox="0 0 30.715 22.949">
  <g id="Group_4815" data-name="Group 4815" transform="translate(-1088.047 -621.008)" opacity="0.86" style="isolation: isolate">
    <path id="Path_7700" data-name="Path 7700" d="M172.1,38.906c2.586-3.556,5.107-6.982,7.564-10.408.776-1.034.776-1.228,0-2.263-2.263-3.1-4.461-6.141-6.723-9.244a7.5,7.5,0,0,1-.582-.905,27.762,27.762,0,0,1,5.236.194,3.464,3.464,0,0,1,1.939,1.358c2.133,2.974,4.267,6.012,6.4,9.05a1.2,1.2,0,0,1-.065,1.616c-2.2,3.038-4.331,6.012-6.529,9.05a3.66,3.66,0,0,1-3.232,1.616C174.88,38.906,173.522,38.906,172.1,38.906Z" transform="translate(924.295 604.986)" fill="#27bdad"/>
    <path id="Path_7701" data-name="Path 7701" d="M159.389,16.1h4.137a3.52,3.52,0,0,1,2.974,1.616c2.133,2.974,4.267,6.012,6.4,8.986a1.2,1.2,0,0,1-.065,1.616c-2.2,3.038-4.331,6.012-6.529,9.05a3.66,3.66,0,0,1-3.232,1.616c-1.293-.065-2.586,0-3.879,0-.065-.388.259-.582.453-.84,2.327-3.168,4.655-6.335,6.917-9.568.776-1.034.776-1.228,0-2.263-2.2-3.038-4.461-6.141-6.659-9.18A2.6,2.6,0,0,1,159.389,16.1Z" transform="translate(928.86 604.972)" fill="#27bdad"/>
    <path id="Path_7702" data-name="Path 7702" d="M201.224,16.065c-2.457,3.362-4.784,6.529-7.111,9.762-.97-1.358-1.875-2.65-2.78-3.943a.582.582,0,0,1,0-.711c.97-1.293,1.81-2.586,2.78-3.814A3.464,3.464,0,0,1,196.763,16C198.186,16.065,199.543,16.065,201.224,16.065Z" transform="translate(917.539 605.008)" fill="#27bdad"/>
    <path id="Path_7703" data-name="Path 7703" d="M200.868,46.1h-4.4a3.373,3.373,0,0,1-2.715-1.422c-.905-1.228-1.745-2.457-2.65-3.685a.527.527,0,0,1,0-.776c.905-1.228,1.81-2.521,2.78-3.814C196.149,39.632,198.476,42.8,200.868,46.1Z" transform="translate(917.636 597.795)" fill="#27bdad"/>
  </g>
</svg>
