<svg id="undraw_not_found_-60-pq" xmlns="http://www.w3.org/2000/svg" width="122.088" height="84.753" viewBox="0 0 122.088 84.753">
  <circle id="Ellipse_1035" data-name="Ellipse 1035" cx="6.973" cy="6.973" r="6.973" transform="translate(16.189 4.249)" fill="#72faec"/>
  <path id="Path_7659" data-name="Path 7659" d="M206.341,98.425c0,16.453-9.781,22.2-21.846,22.2s-21.846-5.745-21.846-22.2S184.5,61.042,184.5,61.042,206.341,81.972,206.341,98.425Z" transform="translate(-149.254 -61.042)" fill="#f2f2f2"/>
  <path id="Path_7660" data-name="Path 7660" d="M244.345,57.063l.224-13.769,9.311-17.035L244.6,41.134l.1-6.191,6.417-12.324L244.731,33.3h0l.181-11.135,6.872-9.812-6.843,8.061L245.054,0l-.71,27.03.058-1.115-6.987-10.694,6.875,12.835-.651,12.436-.019-.33-8.054-11.254,8.03,12.42-.081,1.555-.015.023.007.128-1.652,31.552h2.207l.265-16.3,8.01-12.39Z" transform="translate(-209.9)" fill="#3f3d56"/>
  <path id="Path_7661" data-name="Path 7661" d="M867.8,215.752c0,13.467-8.006,18.169-17.882,18.169s-17.882-4.7-17.882-18.169,17.882-30.6,17.882-30.6S867.8,202.284,867.8,215.752Z" transform="translate(-745.712 -171.63)" fill="#f2f2f2"/>
  <path id="Path_7662" data-name="Path 7662" d="M891.7,170.819l.183-11.271,7.622-13.944-7.593,12.176.082-5.068,5.253-10.088-5.232,8.747h0l.148-9.115,5.625-8.031-5.6,6.6.093-16.713-.581,22.125.048-.913-5.719-8.754,5.627,10.506-.533,10.18-.016-.27-6.593-9.212,6.573,10.167-.067,1.273-.012.019.005.1-1.352,25.826h1.806l.217-13.34,6.556-10.142Z" transform="translate(-788.147 -110.588)" fill="#3f3d56"/>
  <ellipse id="Ellipse_1036" data-name="Ellipse 1036" cx="60.422" cy="3.054" rx="60.422" ry="3.054" transform="translate(0 71.083)" fill="#3f3d56"/>
  <ellipse id="Ellipse_1037" data-name="Ellipse 1037" cx="10.349" cy="0.523" rx="10.349" ry="0.523" transform="translate(86.882 78.661)" fill="#3f3d56"/>
  <ellipse id="Ellipse_1038" data-name="Ellipse 1038" cx="10.349" cy="0.523" rx="10.349" ry="0.523" transform="translate(49.434 83.707)" fill="#3f3d56"/>
  <ellipse id="Ellipse_1039" data-name="Ellipse 1039" cx="23.644" cy="1.195" rx="23.644" ry="1.195" transform="translate(7.728 78.804)" fill="#3f3d56"/>
  <circle id="Ellipse_1040" data-name="Ellipse 1040" cx="8.607" cy="8.607" r="8.607" transform="translate(1.97 53.088)" fill="#2f2e41"/>
  <rect id="Rectangle_1662" data-name="Rectangle 1662" width="2.615" height="4.685" transform="translate(6.576 68.403) rotate(0.675)" fill="#2f2e41"/>
  <rect id="Rectangle_1663" data-name="Rectangle 1663" width="2.615" height="4.685" transform="translate(11.805 68.464) rotate(0.675)" fill="#2f2e41"/>
  <ellipse id="Ellipse_1041" data-name="Ellipse 1041" cx="0.817" cy="2.179" rx="0.817" ry="2.179" transform="translate(6.51 73.959) rotate(-89.325)" fill="#2f2e41"/>
  <ellipse id="Ellipse_1042" data-name="Ellipse 1042" cx="0.817" cy="2.179" rx="0.817" ry="2.179" transform="translate(11.741 73.911) rotate(-89.325)" fill="#2f2e41"/>
  <circle id="Ellipse_1043" data-name="Ellipse 1043" cx="2.942" cy="2.942" r="2.942" transform="translate(7.879 56.577)" fill="#fff"/>
  <circle id="Ellipse_1044" data-name="Ellipse 1044" cx="0.981" cy="0.981" r="0.981" transform="translate(9.84 58.538)" fill="#3f3d56"/>
  <path id="Path_7663" data-name="Path 7663" d="M60.093,494.731c-.658-3.12,1.6-6.239,5.044-6.966s6.77,1.214,7.428,4.334-1.632,4.241-5.076,4.968S60.751,497.852,60.093,494.731Z" transform="translate(-57.77 -441.138)" fill="#72faec"/>
  <path id="Path_7664" data-name="Path 7664" d="M126.971,559.878c0,6-3.567,8.1-7.967,8.1q-.153,0-.305,0c-.2,0-.406-.014-.605-.028-3.971-.281-7.057-2.484-7.057-8.065,0-5.775,7.38-13.063,7.934-13.6h0l.032-.031S126.971,553.877,126.971,559.878Z" transform="translate(-103.264 -493.381)" fill="#72faec"/>
  <path id="Path_7665" data-name="Path 7665" d="M155.311,567.056l2.914-4.072L155.3,567.5l-.008.467c-.2,0-.406-.014-.605-.028l.314-6,0-.047.005-.009.03-.567-2.929-4.53,2.938,4.1.007.12.237-4.536-2.507-4.681,2.538,3.885.247-9.4v0l-.041,7.416,2.5-2.94-2.506,3.579-.066,4.061,2.331-3.9-2.34,4.5-.037,2.258,3.383-5.425-3.4,6.213Z" transform="translate(-139.862 -493.382)" fill="#3f3d56"/>
  <circle id="Ellipse_1045" data-name="Ellipse 1045" cx="8.607" cy="8.607" r="8.607" transform="translate(69.018 52.995)" fill="#2f2e41"/>
  <rect id="Rectangle_1664" data-name="Rectangle 1664" width="2.615" height="4.685" transform="matrix(0.956, -0.294, 0.294, 0.956, 75.86, 69.211)" fill="#2f2e41"/>
  <rect id="Rectangle_1665" data-name="Rectangle 1665" width="2.615" height="4.685" transform="matrix(0.956, -0.294, 0.294, 0.956, 80.859, 67.675)" fill="#2f2e41"/>
  <ellipse id="Ellipse_1046" data-name="Ellipse 1046" cx="2.179" cy="0.817" rx="2.179" ry="0.817" transform="matrix(0.956, -0.294, 0.294, 0.956, 77.012, 72.96)" fill="#2f2e41"/>
  <ellipse id="Ellipse_1047" data-name="Ellipse 1047" cx="2.179" cy="0.817" rx="2.179" ry="0.817" transform="matrix(0.956, -0.294, 0.294, 0.956, 81.979, 71.32)" fill="#2f2e41"/>
  <circle id="Ellipse_1048" data-name="Ellipse 1048" cx="2.942" cy="2.942" r="2.942" transform="translate(74.251 56.513)" fill="#fff"/>
  <circle id="Ellipse_1049" data-name="Ellipse 1049" cx="0.981" cy="0.981" r="0.981" transform="translate(76.212 58.474)" fill="#3f3d56"/>
  <path id="Path_7666" data-name="Path 7666" d="M651.667,504.461c-1.579-2.771-.379-6.43,2.68-8.172s6.818-.909,8.4,1.862-.26,4.537-3.319,6.279S653.246,507.232,651.667,504.461Z" transform="translate(-584.374 -448.058)" fill="#72faec"/>
  <path id="Path_7667" data-name="Path 7667" d="M491.663,558.941c0,5.508-3.274,7.431-7.314,7.431q-.14,0-.28,0c-.187,0-.373-.013-.556-.025-3.646-.258-6.478-2.28-6.478-7.4,0-5.3,6.775-11.991,7.283-12.486h0l.029-.029S491.663,553.433,491.663,558.941Z" transform="translate(-429.389 -493.544)" fill="#72faec"/>
  <path id="Path_7668" data-name="Path 7668" d="M517.677,565.53l2.675-3.738-2.682,4.148-.007.429c-.187,0-.372-.013-.556-.025l.288-5.511,0-.043,0-.008.027-.52-2.688-4.158,2.7,3.768.006.111.218-4.164-2.3-4.3,2.33,3.566.227-8.632v0l-.038,6.807,2.291-2.7-2.3,3.285-.061,3.728L519.946,554l-2.148,4.126-.034,2.073,3.106-4.98-3.117,5.7Z" transform="translate(-462.983 -493.543)" fill="#3f3d56"/>
  <path id="Path_7669" data-name="Path 7669" d="M744.971,570.878c0,6-3.567,8.1-7.967,8.1q-.153,0-.305,0c-.2,0-.406-.014-.605-.028-3.971-.281-7.057-2.484-7.057-8.065,0-5.775,7.38-13.063,7.935-13.6h0l.032-.031S744.971,564.877,744.971,570.878Z" transform="translate(-653.934 -503.183)" fill="#72faec"/>
  <path id="Path_7670" data-name="Path 7670" d="M773.31,578.056l2.914-4.072L773.3,578.5l-.008.467c-.2,0-.406-.014-.605-.028l.314-6,0-.047.005-.009.03-.567-2.929-4.53,2.938,4.1.007.12.237-4.536-2.507-4.681,2.538,3.885.247-9.4v0l-.041,7.416,2.5-2.94-2.506,3.579-.066,4.061,2.331-3.9-2.34,4.5-.037,2.258,3.383-5.425-3.4,6.213Z" transform="translate(-690.531 -503.183)" fill="#3f3d56"/>
  <ellipse id="Ellipse_1050" data-name="Ellipse 1050" cx="1.351" cy="4.303" rx="1.351" ry="4.303" transform="translate(69.816 64.286) rotate(-64.626)" fill="#2f2e41"/>
  <ellipse id="Ellipse_1051" data-name="Ellipse 1051" cx="1.351" cy="4.303" rx="1.351" ry="4.303" transform="translate(3.436 64.018) rotate(-68.159)" fill="#2f2e41"/>
</svg>
