<svg xmlns="http://www.w3.org/2000/svg" width="19.592" height="18.385" viewBox="0 0 19.592 18.385">
  <g id="Group_4675" data-name="Group 4675" transform="translate(-34.103 -676.142)">
    <g id="Group_4483" data-name="Group 4483" transform="translate(34.103 676.892)">
      <g id="Group_4244" data-name="Group 4244" transform="translate(0 0)">
        <ellipse id="Ellipse_969" data-name="Ellipse 969" cx="3.98" cy="3.98" rx="3.98" ry="3.98" transform="translate(2.976)" fill="rgba(0,0,0,0)" stroke="#fff" stroke-linecap="round" stroke-linejoin="round" stroke-width="1.5"/>
        <path id="Subtraction_11" data-name="Subtraction 11" d="M14.329,7.165H0V4A4,4,0,0,1,4,0H8.9a5.178,5.178,0,0,0,5.035,6.368c.132,0,.266-.005.4-.015v.811Z" transform="translate(0 10.47)" fill="#fff"/>
      </g>
      <path id="Icon_ionic-ios-share-alt" data-name="Icon ionic-ios-share-alt" d="M13.227,9.83,9.993,6.8a.165.165,0,0,0-.128-.055c-.1,0-.229.076-.229.183V8.45a.1.1,0,0,1-.083.094c-3.216.493-4.57,2.9-5.049,5.4-.018.1.115.19.176.112a5.845,5.845,0,0,1,4.859-2.462.113.113,0,0,1,.1.11v1.49a.2.2,0,0,0,.332.121l3.257-3.078a.253.253,0,0,0,.08-.193A.307.307,0,0,0,13.227,9.83Z" transform="translate(6.287 0.099)" fill="#72faec"/>
    </g>
  </g>
</svg>
