<svg xmlns="http://www.w3.org/2000/svg" width="21.774" height="21.774" viewBox="0 0 21.774 21.774">
  <g id="Group_4673" data-name="Group 4673" transform="translate(-31.564 -769.587)">
    <path id="Path_6327" data-name="Path 6327" d="M19.029,16.265A2.765,2.765,0,1,1,16.265,13.5,2.765,2.765,0,0,1,19.029,16.265Z" transform="translate(26.186 764.209)" fill="#5ff7ff" stroke="#5ff7ff" stroke-linecap="round" stroke-width="1.5"/>
    <path id="Path_6328" data-name="Path 6328" d="M18.457,14.4a1.521,1.521,0,0,0,.3,1.677l.055.055a1.844,1.844,0,1,1-2.608,2.608l-.055-.055a1.533,1.533,0,0,0-2.6,1.087v.157a1.843,1.843,0,0,1-3.686,0v-.083a1.521,1.521,0,0,0-1-1.392,1.521,1.521,0,0,0-1.677.3l-.055.055a1.844,1.844,0,1,1-2.608-2.608l.055-.055a1.533,1.533,0,0,0-1.087-2.6H3.343a1.843,1.843,0,1,1,0-3.686h.083a1.521,1.521,0,0,0,1.392-1,1.521,1.521,0,0,0-.3-1.677L4.458,7.14A1.844,1.844,0,1,1,7.066,4.532l.055.055a1.521,1.521,0,0,0,1.677.3h.074A1.521,1.521,0,0,0,9.794,3.5V3.343a1.843,1.843,0,0,1,3.686,0v.083a1.533,1.533,0,0,0,2.6,1.087l.055-.055a1.844,1.844,0,1,1,2.608,2.608l-.055.055a1.521,1.521,0,0,0-.3,1.677v.074a1.521,1.521,0,0,0,1.392.922h.157a1.843,1.843,0,1,1,0,3.686h-.083a1.521,1.521,0,0,0-1.392.922Z" transform="translate(30.814 768.837)" fill="none" stroke="#fff" stroke-linecap="round" stroke-width="1.5"/>
  </g>
</svg>
