<svg xmlns="http://www.w3.org/2000/svg" width="18.935" height="13.931" viewBox="0 0 18.935 13.931">
  <g id="Group_4678" data-name="Group 4678" transform="translate(-33.25 -534.983)">
    <path id="Icon_awesome-credit-card" data-name="Icon awesome-credit-card" d="M0,17.286a1.578,1.578,0,0,0,1.578,1.578H17.357a1.578,1.578,0,0,0,1.578-1.578V11.5H0ZM6.312,15.05a.4.4,0,0,1,.394-.394h4.471a.4.4,0,0,1,.394.394v1.315a.4.4,0,0,1-.394.394H6.706a.4.4,0,0,1-.394-.394Zm-4.208,0a.4.4,0,0,1,.394-.394H4.865a.4.4,0,0,1,.394.394v1.315a.4.4,0,0,1-.394.394H2.5a.4.4,0,0,1-.394-.394Z" transform="translate(33.25 530.051)" fill="#27bdad"/>
    <path id="Icon_awesome-credit-card-2" data-name="Icon awesome-credit-card" d="M18.935,3.828V5.406H0V3.828A1.578,1.578,0,0,1,1.578,2.25H17.357A1.578,1.578,0,0,1,18.935,3.828Z" transform="translate(33.25 532.733)" fill="#27bdad"/>
  </g>
</svg>
